PathFileType	4	(X/Y/Z)	/Users/mathieubourgeois/Desktop/Analyse/Traitement/Sujet_01/Data/Transformed_Sujet_01_velo_100.trc
DataRate	CameraRate	NumFrames	NumMarkers	Units	OrigDataRate	OrigDataStartFrame	OrigNumFrames
120.000000	120.000000	4	35	mm	120.000000	1739	1988
Frame#	Time	RFHD			LFHD			RBHD			LBHD			RSHO			LSHO			CLAV			STRN			T10			RBWT			LBWT			RFWT			LFWT			RRAD			RWRA			RWRB			RCAR			RHUM			LHUM			LRAD			LWRA			LWRB			LCAR			RKNI			RKNE			LKNI			LKNE			RANE			RANI			RTOE			RHEE			LTOE			LANI			LANE			LHEE			
		X1	Y1	Z1	X2	Y2	Z2	X3	Y3	Z3	X4	Y4	Z4	X5	Y5	Z5	X6	Y6	Z6	X7	Y7	Z7	X8	Y8	Z8	X9	Y9	Z9	X10	Y10	Z10	X11	Y11	Z11	X12	Y12	Z12	X13	Y13	Z13	X14	Y14	Z14	X15	Y15	Z15	X16	Y16	Z16	X17	Y17	Z17	X18	Y18	Z18	X19	Y19	Z19	X20	Y20	Z20	X21	Y21	Z21	X22	Y22	Z22	X23	Y23	Z23	X24	Y24	Z24	X25	Y25	Z25	X26	Y26	Z26	X27	Y27	Z27	X28	Y28	Z28	X29	Y29	Z29	X30	Y30	Z30	X31	Y31	Z31	X32	Y32	Z32	X33	Y33	Z33	X34	Y34	Z34	X35	Y35	Z35	

1740	14.49166666666667	180.5373840332031	1371.863891601562	309.8238220214843	177.2408599853515	1360.904174804688	185.7645568847656	112.1316680908203	1508.599853515625	305.7355651855468	106.8197555541992	1500.822875976562	173.8183593749999	-0.5760045051575126	1381.068725585938	341.6024475097656	-8.425330162048356	1374.150146484375	130.9705200195312	16.40293502807614	1317.048583984375	247.5309295654296	-43.90037918090823	1214.580810546875	252.7523345947265	-215.678695678711	1387.673217773438	265.5423889160156	-430.1172485351563	1118.696533203125	338.3306884765624	-436.1275634765625	1114.144775390625	218.7243652343749	-257.7404785156251	1077.830078125	383.9481506347655	-258.4185485839844	1087.79638671875	157.0242767333984	138.4037322998046	1168.529418945312	495.8849182128906	314.0526428222656	1043.392822265625	410.7632141113281	337.9866638183593	1054.736938476562	471.0861511230469	414.0021667480468	1034.958129882812	400.8612365722656	93.08562469482416	1127.175903320312	465.3418273925781	90.08063507080077	1119.879272460938	65.82587432861322	141.4333953857422	1151.067016601562	36.6553001403808	317.021728515625	1039.119140625	143.2728424072265	340.0671691894531	1047.612670898438	78.90563201904294	402.1949462890625	1048.603149414062	151.0789794921875	-98.61543273925786	723.3180541992188	340.7609252929687	-88.48817443847662	758.2568359375	458.7257995605468	-11.88863754272463	802.1320190429688	196.8849945068359	-30.31186103820801	787.3579711914062	71.64429473876949	-295.9380493164063	483.1361389160156	431.5711364746093	-274.0008850097657	481.1797790527344	353.7321166992186	-161.837875366211	341.9293212890625	399.0240783691406	-370.2557067871094	476.1771240234375	390.0598754882811	134.8515930175781	396.0032653808594	142.6757049560547	-44.53429794311526	445.4588012695312	159.7707824707031	-52.58994293212891	434.5404357910156	83.73663330078122	-117.2701034545899	379.2210998535156	123.5563430786132	
1741	14.5	179.8333740234375	1371.832641601562	311.2458496093749	176.4813995361328	1360.919921875	187.1126403808593	111.0973205566406	1508.383056640625	307.2462463378905	105.7368850708008	1500.70556640625	175.3001098632812	-1.86042380332951	1380.884399414062	343.3885803222656	-9.069215774536149	1373.908813476562	132.5626068115234	14.64591121673581	1316.661254882812	249.342300415039	-45.05453872680667	1214.086547851562	254.0440216064452	-216.8955993652344	1386.590576171875	266.3194274902343	-430.3860168457032	1116.714721679688	336.9299926757811	-435.3449401855469	1111.553100585938	217.292022705078	-258.3405151367188	1077.220092773438	383.7158203124999	-256.7178955078125	1085.358032226562	156.7225036621093	137.9712524414062	1167.972290039062	496.4856567382812	313.9389648437499	1043.650390625	410.5936279296875	337.9228210449218	1054.870361328125	470.919189453125	413.8492736816406	1035.0927734375	400.5051879882812	92.85392761230463	1126.629516601562	465.5356750488281	90.06546783447264	1119.827880859375	66.68416595458979	141.3262634277344	1151.211059570312	37.31760406494135	317.0975952148438	1039.069458007812	143.2486877441406	340.0388793945312	1047.773315429688	78.87927246093747	402.2103271484375	1048.506591796875	151.0236206054688	-90.60523223876957	735.0155639648438	342.1197204589843	-80.06475830078131	769.65283203125	460.0100708007812	-18.18446540832522	783.7996215820312	196.0212097167968	-38.53979110717774	768.6438598632812	71.12554931640621	-294.7937011718751	501.254638671875	431.4266052246093	-272.8944702148438	499.3002014160156	353.5482482910155	-161.1131896972657	360.1700744628906	399.1085510253906	-369.5751953125001	494.4049377441406	389.8822937011718	134.1924285888672	377.35302734375	142.2586212158203	-45.06917953491213	426.7669982910156	159.1902618408203	-53.77817916870118	416.4108276367188	83.79972839355466	-118.5179595947266	362.2701721191406	122.9603652954101	
1742	14.50833333333333	179.2124328613281	1371.883666992188	312.6036376953124	175.7881774902343	1361.020263671875	188.5456237792968	110.0913314819336	1508.251953125	308.7457885742186	104.6553726196289	1500.630004882812	176.7738189697265	-3.204780578613323	1380.686889648438	345.2770385742187	-9.726940155029313	1373.670654296875	134.1362152099609	12.91236591339108	1316.33203125	250.9383850097655	-46.00397109985354	1213.622436523438	255.4852905273437	-218.0588684082032	1385.498291015625	267.1597290039062	-430.5390319824219	1114.695556640625	335.5155639648436	-434.3112182617188	1109.023803710938	215.8392944335936	-258.7863464355469	1076.57861328125	383.591827392578	-254.9254760742188	1082.909301757812	156.573516845703	137.6560974121093	1167.2353515625	497.1161499023437	313.6461181640624	1043.917846679688	410.4543151855469	337.7304687499999	1055.027587890625	470.7272033691406	413.5861816406249	1035.370361328125	400.0826416015625	92.5195693969726	1126.19970703125	466.0393066406249	89.8577194213867	1119.650146484375	67.41500854492182	140.9701232910156	1151.19677734375	37.77381134033197	317.0096740722656	1038.98876953125	143.0965270996093	339.8370056152344	1047.89208984375	78.73984527587888	402.0694274902344	1048.485473632812	150.8151550292969	-82.56401062011723	746.970703125	343.5891723632812	-71.90409088134771	781.045654296875	461.8287963867187	-26.25155448913577	765.8988037109375	195.0708007812499	-47.68143463134766	750.00048828125	70.42105102539058	-292.5566101074219	518.9081420898438	431.1156616210936	-270.5549316406251	517.00390625	353.2447204589843	-158.6674499511719	378.5157165527344	399.2737426757812	-367.7140808105469	511.77392578125	389.5120849609374	131.7002258300781	358.9444885253906	141.7710723876953	-46.96190261840822	408.6007995605469	158.5208740234375	-56.64492416381837	398.7696838378906	83.69467926025388	-121.0906829833985	346.127197265625	122.5376281738281	
1743	14.51666666666667	178.6781616210937	1372.119995117188	314.0178222656249	175.1503753662109	1361.248413085938	189.9019622802734	109.1970977783203	1508.243041992188	310.2054748535155	103.5991973876953	1500.620849609375	178.2894592285155	-4.597953796386761	1380.637329101562	347.1469726562499	-10.37448024749757	1373.357788085938	135.7743225097655	11.25767517089841	1315.951904296875	252.6836700439452	-46.85453796386722	1213.20751953125	256.9797973632812	-219.1557922363282	1384.45263671875	268.0419006347656	-430.4750976562501	1112.938842773438	333.9892272949218	-433.0332641601562	1106.724731445312	214.3290863037108	-258.9479064941407	1075.991577148438	383.626983642578	-252.9832000732422	1080.622314453125	156.6716003417968	137.091079711914	1167.055419921875	498.0238037109374	313.2392883300781	1044.1884765625	410.3050537109375	337.5495910644531	1055.183715820312	470.5525817871094	413.2402648925781	1035.73681640625	399.6833801269531	92.09226226806635	1125.893676757812	466.8375854492187	89.4727096557617	1119.328857421875	68.0430068969726	140.4259796142578	1150.978881835938	38.07840347290033	316.777587890625	1038.885498046875	142.8048706054687	339.6398315429688	1048.18603515625	77.64430236816403	401.8099060058594	1048.569702148438	150.4254760742188	-74.14453887939457	758.7857055664062	345.1260375976562	-64.31182098388678	792.7514038085938	463.8327026367187	-35.02778625488283	748.4020385742188	193.9271697998046	-57.57098007202149	731.90478515625	69.68088531494136	-289.3200988769532	536.0890502929688	430.6069946289061	-267.2005920410157	534.2295532226562	352.8099975585936	-154.499252319336	396.8931579589844	399.3599548339844	-364.8182067871094	528.2158813476562	388.9800720214843	128.0322265625	341.2868957519531	141.433837890625	-50.47286605834963	391.1007080078125	157.5742492675781	-61.5786476135254	381.8675231933594	83.60691833496089	-125.3522338867188	330.9191284179688	122.1276779174804	
